<?xml version="1.0" standalone="no"?>
<!DOCTYPE svg PUBLIC "-//W3C//DTD SVG 20010904//EN"
 "http://www.w3.org/TR/2001/REC-SVG-20010904/DTD/svg10.dtd">
<svg version="1.0" xmlns="http://www.w3.org/2000/svg"
 width="100.000000pt" height="100.000000pt" viewBox="0 0 100.000000 100.000000"
 preserveAspectRatio="xMidYMid meet">
<metadata>
Created by potrace 1.16, written by Peter Selinger 2001-2019
</metadata>
<g transform="translate(0.000000,100.000000) scale(0.100000,-0.100000)"
fill="#000000" stroke="none">
<path d="M442 745 c-23 -10 -32 -20 -30 -32 4 -19 35 -22 93 -9 49 11 60 -4
58 -78 -1 -50 -7 -74 -27 -104 -33 -52 -82 -89 -132 -100 -29 -6 -39 -13 -39
-27 0 -23 23 -24 235 -9 115 8 125 11 125 29 0 19 -6 20 -92 17 -86 -3 -113 5
-83 23 5 3 22 32 36 63 34 74 39 189 10 221 -23 25 -102 28 -154 6z"/>
</g>
</svg>
