<?xml version="1.0" standalone="no"?>
<!DOCTYPE svg PUBLIC "-//W3C//DTD SVG 20010904//EN"
 "http://www.w3.org/TR/2001/REC-SVG-20010904/DTD/svg10.dtd">
<svg version="1.0" xmlns="http://www.w3.org/2000/svg"
 width="100.000000pt" height="100.000000pt" viewBox="0 0 100.000000 100.000000"
 preserveAspectRatio="xMidYMid meet">
<metadata>
Created by potrace 1.16, written by Peter Selinger 2001-2019
</metadata>
<g transform="translate(0.000000,100.000000) scale(0.100000,-0.100000)"
fill="#000000" stroke="none">
<path d="M330 685 c-15 -18 15 -146 41 -180 11 -14 31 -25 43 -25 23 0 66 38
66 58 0 25 18 10 32 -25 41 -105 48 -202 18 -238 -20 -24 -82 -19 -121 10 -19
13 -44 32 -56 41 -24 17 -43 12 -43 -12 0 -31 105 -104 160 -111 45 -6 92 18
109 54 25 55 -5 266 -51 356 -16 32 -23 38 -46 35 -21 -2 -29 -11 -42 -47 -23
-67 -36 -62 -50 18 -9 53 -16 70 -30 74 -11 3 -24 -1 -30 -8z"/>
</g>
</svg>
