<?xml version="1.0" standalone="no"?>
<!DOCTYPE svg PUBLIC "-//W3C//DTD SVG 20010904//EN"
 "http://www.w3.org/TR/2001/REC-SVG-20010904/DTD/svg10.dtd">
<svg version="1.0" xmlns="http://www.w3.org/2000/svg"
 width="100.000000pt" height="100.000000pt" viewBox="0 0 100.000000 100.000000"
 preserveAspectRatio="xMidYMid meet">
<metadata>
Created by potrace 1.16, written by Peter Selinger 2001-2019
</metadata>
<g transform="translate(0.000000,100.000000) scale(0.100000,-0.100000)"
fill="#000000" stroke="none">
<path d="M606 633 c-3 -3 -6 -17 -6 -30 0 -35 -27 -81 -52 -89 -27 -8 -66 35
-70 81 -2 22 -8 30 -23 30 -17 0 -21 -8 -25 -55 -9 -98 -62 -143 -95 -80 -8
16 -15 38 -15 48 0 11 -8 29 -18 41 -14 19 -20 20 -35 9 -15 -11 -16 -18 -6
-48 31 -98 67 -140 119 -140 23 0 80 47 80 66 0 16 16 19 25 4 11 -17 91 -12
115 8 23 19 50 82 50 119 0 22 -32 48 -44 36z"/>
</g>
</svg>
