<?xml version="1.0" standalone="no"?>
<!DOCTYPE svg PUBLIC "-//W3C//DTD SVG 20010904//EN"
 "http://www.w3.org/TR/2001/REC-SVG-20010904/DTD/svg10.dtd">
<svg version="1.0" xmlns="http://www.w3.org/2000/svg"
 width="100.000000pt" height="100.000000pt" viewBox="0 0 100.000000 100.000000"
 preserveAspectRatio="xMidYMid meet">
<metadata>
Created by potrace 1.16, written by Peter Selinger 2001-2019
</metadata>
<g transform="translate(0.000000,100.000000) scale(0.100000,-0.100000)"
fill="#000000" stroke="none">
<path d="M207 863 c-15 -15 -2 -35 109 -174 l115 -144 -6 -85 c-3 -47 -9 -124
-13 -173 -8 -96 -6 -107 13 -107 8 0 15 21 19 63 4 34 11 105 16 157 5 52 12
123 16 156 4 42 3 64 -5 69 -7 4 -9 11 -3 18 12 16 36 183 28 202 -3 8 -12 15
-20 15 -28 0 -40 -42 -39 -145 l1 -99 -38 40 c-21 22 -64 80 -95 127 -52 81
-77 101 -98 80z"/>
</g>
</svg>
