<?xml version="1.0" standalone="no"?>
<!DOCTYPE svg PUBLIC "-//W3C//DTD SVG 20010904//EN"
 "http://www.w3.org/TR/2001/REC-SVG-20010904/DTD/svg10.dtd">
<svg version="1.0" xmlns="http://www.w3.org/2000/svg"
 width="100.000000pt" height="100.000000pt" viewBox="0 0 100.000000 100.000000"
 preserveAspectRatio="xMidYMid meet">
<metadata>
Created by potrace 1.16, written by Peter Selinger 2001-2019
</metadata>
<g transform="translate(0.000000,100.000000) scale(0.100000,-0.100000)"
fill="#000000" stroke="none">
<path d="M480 711 c-34 -8 -53 -21 -73 -51 -46 -68 10 -134 93 -110 50 14 60
-4 60 -105 0 -74 -2 -85 -25 -110 -20 -20 -31 -25 -48 -20 -59 19 -77 18 -77
-3 0 -28 46 -62 85 -62 81 0 121 86 112 243 -3 56 -1 112 4 126 13 32 4 68
-19 79 -25 13 -83 20 -112 13z m49 -87 c-6 -8 -25 -14 -41 -14 -22 0 -29 4
-26 17 4 20 48 34 66 20 9 -7 9 -13 1 -23z"/>
</g>
</svg>
