<?xml version="1.0" standalone="no"?>
<!DOCTYPE svg PUBLIC "-//W3C//DTD SVG 20010904//EN"
 "http://www.w3.org/TR/2001/REC-SVG-20010904/DTD/svg10.dtd">
<svg version="1.0" xmlns="http://www.w3.org/2000/svg"
 width="100.000000pt" height="100.000000pt" viewBox="0 0 100.000000 100.000000"
 preserveAspectRatio="xMidYMid meet">
<metadata>
Created by potrace 1.16, written by Peter Selinger 2001-2019
</metadata>
<g transform="translate(0.000000,100.000000) scale(0.100000,-0.100000)"
fill="#000000" stroke="none">
<path d="M368 898 c-6 -13 -16 -48 -20 -78 -4 -30 -12 -84 -18 -120 -6 -36
-13 -89 -16 -118 -5 -38 -12 -56 -26 -63 -17 -9 -19 -17 -13 -58 5 -39 1 -61
-25 -126 -34 -85 -34 -125 0 -125 13 0 22 9 26 28 3 15 8 34 11 42 13 40 33
123 33 140 0 22 4 23 130 44 83 14 110 10 110 -16 0 -12 95 -155 123 -185 24
-27 35 -29 43 -8 4 9 -14 38 -44 72 -47 54 -142 222 -171 303 -7 19 -17 44
-21 55 -4 11 -22 66 -40 122 -27 87 -42 113 -65 113 -3 0 -10 -10 -17 -22z
m59 -138 c14 -36 40 -102 58 -148 23 -57 30 -84 22 -87 -31 -11 -105 -25 -136
-25 l-33 0 6 53 c6 53 19 145 32 230 3 26 11 46 17 44 5 -1 21 -32 34 -67z"/>
</g>
</svg>
