<?xml version="1.0" standalone="no"?>
<!DOCTYPE svg PUBLIC "-//W3C//DTD SVG 20010904//EN"
 "http://www.w3.org/TR/2001/REC-SVG-20010904/DTD/svg10.dtd">
<svg version="1.0" xmlns="http://www.w3.org/2000/svg"
 width="100.000000pt" height="100.000000pt" viewBox="0 0 100.000000 100.000000"
 preserveAspectRatio="xMidYMid meet">
<metadata>
Created by potrace 1.16, written by Peter Selinger 2001-2019
</metadata>
<g transform="translate(0.000000,100.000000) scale(0.100000,-0.100000)"
fill="#000000" stroke="none">
<path d="M120 736 c-12 -16 -12 -18 56 -164 19 -41 44 -104 55 -140 12 -37 30
-94 40 -126 11 -33 19 -65 19 -71 0 -7 8 -19 18 -28 38 -35 58 6 82 173 7 41
18 98 25 125 12 45 13 46 14 17 2 -54 40 -214 64 -262 17 -35 28 -46 50 -48
45 -5 64 20 77 101 37 232 48 292 66 347 18 57 18 76 0 83 -11 4 -19 -9 -30
-48 -9 -29 -16 -59 -16 -66 0 -7 -4 -26 -9 -43 -6 -17 -15 -65 -21 -106 -7
-41 -16 -86 -20 -100 -4 -14 -13 -44 -21 -68 -7 -23 -17 -41 -23 -39 -37 12
-75 176 -76 324 0 104 -5 123 -30 123 -21 0 -37 -39 -51 -120 -5 -30 -13 -82
-19 -115 -23 -140 -43 -215 -52 -200 -3 6 -16 48 -28 95 -13 47 -38 123 -56
170 -19 47 -38 104 -44 127 -10 40 -32 73 -49 73 -5 0 -14 -6 -21 -14z"/>
</g>
</svg>
