<?xml version="1.0" standalone="no"?>
<!DOCTYPE svg PUBLIC "-//W3C//DTD SVG 20010904//EN"
 "http://www.w3.org/TR/2001/REC-SVG-20010904/DTD/svg10.dtd">
<svg version="1.0" xmlns="http://www.w3.org/2000/svg"
 width="100.000000pt" height="100.000000pt" viewBox="0 0 100.000000 100.000000"
 preserveAspectRatio="xMidYMid meet">
<metadata>
Created by potrace 1.16, written by Peter Selinger 2001-2019
</metadata>
<g transform="translate(0.000000,100.000000) scale(0.100000,-0.100000)"
fill="#000000" stroke="none">
<path d="M394 685 c-4 -8 -3 -30 1 -48 14 -62 17 -192 5 -230 -13 -44 -6 -74
18 -81 18 -6 142 16 161 29 8 4 8 12 2 23 -7 13 -24 17 -63 17 l-53 0 3 75 c2
41 -1 97 -6 123 l-10 49 56 -4 c43 -2 57 1 65 14 8 12 7 21 -2 32 -19 23 -169
23 -177 1z"/>
</g>
</svg>
