<?xml version="1.0" standalone="no"?>
<!DOCTYPE svg PUBLIC "-//W3C//DTD SVG 20010904//EN"
 "http://www.w3.org/TR/2001/REC-SVG-20010904/DTD/svg10.dtd">
<svg version="1.0" xmlns="http://www.w3.org/2000/svg"
 width="100.000000pt" height="100.000000pt" viewBox="0 0 100.000000 100.000000"
 preserveAspectRatio="xMidYMid meet">
<metadata>
Created by potrace 1.16, written by Peter Selinger 2001-2019
</metadata>
<g transform="translate(0.000000,100.000000) scale(0.100000,-0.100000)"
fill="#000000" stroke="none">
<path d="M572 783 c-5 -10 -6 -27 -1 -38 4 -11 8 -55 8 -97 l1 -78 -43 -45
c-41 -42 -47 -45 -95 -45 -28 0 -62 4 -76 10 -26 9 -26 10 -26 123 0 112 -7
137 -37 137 -7 0 -17 -8 -22 -19 -10 -18 -7 -46 19 -181 8 -38 6 -49 -10 -72
-17 -23 -20 -44 -20 -147 0 -95 3 -123 16 -135 20 -21 21 -21 39 14 10 20 15
58 15 125 0 69 3 95 13 96 6 0 43 0 80 -1 60 -1 74 2 108 25 21 15 42 37 46
49 10 31 23 -43 29 -179 6 -111 11 -130 30 -117 7 5 7 50 2 142 -5 74 -12 194
-16 265 -10 160 -32 222 -60 168z"/>
</g>
</svg>
