<?xml version="1.0" standalone="no"?>
<!DOCTYPE svg PUBLIC "-//W3C//DTD SVG 20010904//EN"
 "http://www.w3.org/TR/2001/REC-SVG-20010904/DTD/svg10.dtd">
<svg version="1.0" xmlns="http://www.w3.org/2000/svg"
 width="100.000000pt" height="100.000000pt" viewBox="0 0 100.000000 100.000000"
 preserveAspectRatio="xMidYMid meet">
<metadata>
Created by potrace 1.16, written by Peter Selinger 2001-2019
</metadata>
<g transform="translate(0.000000,100.000000) scale(0.100000,-0.100000)"
fill="#000000" stroke="none">
<path d="M410 825 c-10 -12 -10 -23 4 -58 9 -23 16 -58 16 -77 0 -19 5 -79 12
-132 9 -76 15 -98 29 -101 39 -10 42 5 25 128 -9 64 -16 139 -16 167 0 27 -5
58 -10 69 -13 23 -43 25 -60 4z"/>
<path d="M466 345 c-21 -21 -20 -32 2 -44 25 -13 67 9 67 34 0 26 -46 32 -69
10z"/>
</g>
</svg>
