<?xml version="1.0" standalone="no"?>
<!DOCTYPE svg PUBLIC "-//W3C//DTD SVG 20010904//EN"
 "http://www.w3.org/TR/2001/REC-SVG-20010904/DTD/svg10.dtd">
<svg version="1.0" xmlns="http://www.w3.org/2000/svg"
 width="100.000000pt" height="100.000000pt" viewBox="0 0 100.000000 100.000000"
 preserveAspectRatio="xMidYMid meet">
<metadata>
Created by potrace 1.16, written by Peter Selinger 2001-2019
</metadata>
<g transform="translate(0.000000,100.000000) scale(0.100000,-0.100000)"
fill="#000000" stroke="none">
<path d="M262 903 c-5 -10 -12 -72 -16 -138 -10 -164 -22 -283 -34 -327 -12
-47 -48 -108 -73 -126 -10 -7 -19 -24 -19 -38 0 -22 4 -25 27 -22 62 7 116
150 127 335 3 56 9 108 12 117 10 26 21 18 27 -16 16 -108 86 -326 123 -381
20 -31 30 -38 52 -35 37 4 52 39 52 122 0 78 18 293 27 316 3 9 13 -11 23 -45
36 -122 133 -351 155 -367 17 -13 35 -9 35 7 0 8 -13 36 -29 62 -67 110 -141
339 -141 440 0 79 -42 83 -68 7 -13 -37 -18 -79 -41 -348 -10 -113 -23 -147
-44 -111 -32 54 -82 222 -115 385 -32 156 -37 175 -54 178 -9 2 -21 -5 -26
-15z"/>
</g>
</svg>
