<?xml version="1.0" standalone="no"?>
<!DOCTYPE svg PUBLIC "-//W3C//DTD SVG 20010904//EN"
 "http://www.w3.org/TR/2001/REC-SVG-20010904/DTD/svg10.dtd">
<svg version="1.0" xmlns="http://www.w3.org/2000/svg"
 width="100.000000pt" height="100.000000pt" viewBox="0 0 100.000000 100.000000"
 preserveAspectRatio="xMidYMid meet">
<metadata>
Created by potrace 1.16, written by Peter Selinger 2001-2019
</metadata>
<g transform="translate(0.000000,100.000000) scale(0.100000,-0.100000)"
fill="#000000" stroke="none">
<path d="M458 645 c-3 -3 -32 -9 -64 -13 -50 -6 -59 -10 -59 -27 0 -18 6 -20
63 -19 34 0 62 -3 62 -9 0 -5 -26 -32 -57 -61 -137 -124 -140 -129 -98 -148
25 -11 63 -6 174 26 63 18 80 31 64 47 -9 9 -29 8 -80 -5 -37 -9 -72 -16 -77
-16 -5 0 19 26 55 57 129 116 135 125 103 157 -14 15 -74 22 -86 11z"/>
</g>
</svg>
