<?xml version="1.0" standalone="no"?>
<!DOCTYPE svg PUBLIC "-//W3C//DTD SVG 20010904//EN"
 "http://www.w3.org/TR/2001/REC-SVG-20010904/DTD/svg10.dtd">
<svg version="1.0" xmlns="http://www.w3.org/2000/svg"
 width="100.000000pt" height="100.000000pt" viewBox="0 0 100.000000 100.000000"
 preserveAspectRatio="xMidYMid meet">
<metadata>
Created by potrace 1.16, written by Peter Selinger 2001-2019
</metadata>
<g transform="translate(0.000000,100.000000) scale(0.100000,-0.100000)"
fill="#000000" stroke="none">
<path d="M434 596 c-3 -8 -4 -27 -2 -43 4 -34 44 -45 65 -17 10 14 9 22 -4 45
-18 31 -50 38 -59 15z"/>
<path d="M477 413 c-4 -3 -4 -29 -1 -58 6 -48 4 -54 -25 -87 -17 -20 -45 -41
-61 -48 -23 -9 -30 -18 -28 -34 4 -31 28 -30 80 3 66 42 102 102 94 154 -11
64 -36 94 -59 70z"/>
</g>
</svg>
