<?xml version="1.0" standalone="no"?>
<!DOCTYPE svg PUBLIC "-//W3C//DTD SVG 20010904//EN"
 "http://www.w3.org/TR/2001/REC-SVG-20010904/DTD/svg10.dtd">
<svg version="1.0" xmlns="http://www.w3.org/2000/svg"
 width="100.000000pt" height="100.000000pt" viewBox="0 0 100.000000 100.000000"
 preserveAspectRatio="xMidYMid meet">
<metadata>
Created by potrace 1.16, written by Peter Selinger 2001-2019
</metadata>
<g transform="translate(0.000000,100.000000) scale(0.100000,-0.100000)"
fill="#000000" stroke="none">
<path d="M286 684 c-22 -22 -20 -30 12 -49 15 -9 32 -26 38 -38 5 -12 20 -40
32 -62 12 -22 48 -98 81 -170 33 -71 67 -134 76 -140 24 -15 45 20 45 74 1
118 44 316 77 353 17 19 11 48 -10 48 -21 0 -72 -108 -81 -170 -28 -210 -34
-220 -72 -134 -105 241 -129 286 -152 295 -30 11 -28 12 -46 -7z"/>
</g>
</svg>
