<?xml version="1.0" standalone="no"?>
<!DOCTYPE svg PUBLIC "-//W3C//DTD SVG 20010904//EN"
 "http://www.w3.org/TR/2001/REC-SVG-20010904/DTD/svg10.dtd">
<svg version="1.0" xmlns="http://www.w3.org/2000/svg"
 width="100.000000pt" height="100.000000pt" viewBox="0 0 100.000000 100.000000"
 preserveAspectRatio="xMidYMid meet">
<metadata>
Created by potrace 1.16, written by Peter Selinger 2001-2019
</metadata>
<g transform="translate(0.000000,100.000000) scale(0.100000,-0.100000)"
fill="#000000" stroke="none">
<path d="M417 740 c-35 -28 -44 -79 -23 -134 16 -41 15 -45 -5 -91 -27 -61
-29 -123 -3 -142 28 -21 107 -17 138 8 33 26 34 61 1 114 -51 84 -51 81 -16
120 17 20 29 40 26 46 -11 17 -54 10 -65 -11 -15 -28 -30 -25 -30 5 0 15 9 31
24 41 23 14 28 14 69 -4 33 -15 48 -17 56 -9 55 55 -107 108 -172 57z m73
-299 c0 -19 -25 -31 -47 -24 -14 5 -16 34 -6 72 l6 24 24 -27 c12 -15 23 -35
23 -45z"/>
</g>
</svg>
