<?xml version="1.0" standalone="no"?>
<!DOCTYPE svg PUBLIC "-//W3C//DTD SVG 20010904//EN"
 "http://www.w3.org/TR/2001/REC-SVG-20010904/DTD/svg10.dtd">
<svg version="1.0" xmlns="http://www.w3.org/2000/svg"
 width="100.000000pt" height="100.000000pt" viewBox="0 0 100.000000 100.000000"
 preserveAspectRatio="xMidYMid meet">
<metadata>
Created by potrace 1.16, written by Peter Selinger 2001-2019
</metadata>
<g transform="translate(0.000000,100.000000) scale(0.100000,-0.100000)"
fill="#000000" stroke="none">
<path d="M440 625 c-7 -9 -9 -26 -5 -45 6 -28 5 -30 -23 -30 -29 0 -62 -21
-62 -40 0 -10 26 -20 55 -20 13 0 25 -5 27 -12 2 -6 -1 -54 -8 -106 -13 -99
-11 -122 12 -122 22 0 31 30 36 121 7 103 18 129 57 129 36 0 62 27 40 41 -8
5 -29 9 -46 9 -31 0 -33 2 -33 33 0 49 -26 71 -50 42z"/>
</g>
</svg>
