<?xml version="1.0" standalone="no"?>
<!DOCTYPE svg PUBLIC "-//W3C//DTD SVG 20010904//EN"
 "http://www.w3.org/TR/2001/REC-SVG-20010904/DTD/svg10.dtd">
<svg version="1.0" xmlns="http://www.w3.org/2000/svg"
 width="100.000000pt" height="100.000000pt" viewBox="0 0 100.000000 100.000000"
 preserveAspectRatio="xMidYMid meet">
<metadata>
Created by potrace 1.16, written by Peter Selinger 2001-2019
</metadata>
<g transform="translate(0.000000,100.000000) scale(0.100000,-0.100000)"
fill="#000000" stroke="none">
<path d="M425 575 c-25 -9 -43 -11 -49 -5 -6 6 -21 10 -34 10 -23 0 -24 -2
-16 -47 5 -27 9 -84 9 -128 0 -66 3 -80 17 -83 24 -5 32 14 43 98 9 69 13 76
44 97 19 13 44 23 56 23 26 0 50 24 40 40 -9 14 -62 12 -110 -5z"/>
</g>
</svg>
