<?xml version="1.0" standalone="no"?>
<!DOCTYPE svg PUBLIC "-//W3C//DTD SVG 20010904//EN"
 "http://www.w3.org/TR/2001/REC-SVG-20010904/DTD/svg10.dtd">
<svg version="1.0" xmlns="http://www.w3.org/2000/svg"
 width="100.000000pt" height="100.000000pt" viewBox="0 0 100.000000 100.000000"
 preserveAspectRatio="xMidYMid meet">
<metadata>
Created by potrace 1.16, written by Peter Selinger 2001-2019
</metadata>
<g transform="translate(0.000000,100.000000) scale(0.100000,-0.100000)"
fill="#000000" stroke="none">
<path d="M486 758 c-12 -7 -56 -9 -123 -5 -119 6 -123 3 -123 -81 0 -27 -4
-72 -10 -101 -16 -87 12 -113 63 -56 41 47 77 47 123 1 25 -25 34 -42 34 -68
-1 -65 -38 -85 -91 -47 -54 38 -82 -1 -33 -46 34 -31 57 -38 99 -31 50 10 75
47 75 113 0 64 -16 99 -66 142 -32 29 -42 32 -88 30 l-51 -3 3 35 c1 18 6 36
10 40 4 3 54 11 112 18 112 13 131 21 114 48 -14 22 -25 25 -48 11z"/>
</g>
</svg>
