<?xml version="1.0" standalone="no"?>
<!DOCTYPE svg PUBLIC "-//W3C//DTD SVG 20010904//EN"
 "http://www.w3.org/TR/2001/REC-SVG-20010904/DTD/svg10.dtd">
<svg version="1.0" xmlns="http://www.w3.org/2000/svg"
 width="100.000000pt" height="100.000000pt" viewBox="0 0 100.000000 100.000000"
 preserveAspectRatio="xMidYMid meet">
<metadata>
Created by potrace 1.16, written by Peter Selinger 2001-2019
</metadata>
<g transform="translate(0.000000,100.000000) scale(0.100000,-0.100000)"
fill="#000000" stroke="none">
<path d="M535 673 c-54 -14 -196 -137 -227 -197 -14 -26 -22 -60 -22 -94 0
-45 4 -57 24 -73 34 -26 118 -25 172 1 23 11 45 20 50 20 18 0 118 51 118 61
0 23 -32 18 -103 -15 -62 -30 -86 -36 -141 -36 l-65 0 -9 33 c-8 31 -7 32 25
39 89 20 197 95 251 175 28 40 28 58 0 77 -23 16 -37 18 -73 9z m35 -58 c0 -3
-17 -24 -37 -46 -75 -83 -180 -126 -157 -64 14 36 194 138 194 110z"/>
</g>
</svg>
