<?xml version="1.0" standalone="no"?>
<!DOCTYPE svg PUBLIC "-//W3C//DTD SVG 20010904//EN"
 "http://www.w3.org/TR/2001/REC-SVG-20010904/DTD/svg10.dtd">
<svg version="1.0" xmlns="http://www.w3.org/2000/svg"
 width="100.000000pt" height="100.000000pt" viewBox="0 0 100.000000 100.000000"
 preserveAspectRatio="xMidYMid meet">
<metadata>
Created by potrace 1.16, written by Peter Selinger 2001-2019
</metadata>
<g transform="translate(0.000000,100.000000) scale(0.100000,-0.100000)"
fill="#000000" stroke="none">
<path d="M580 685 c-122 -36 -188 -43 -207 -24 -6 6 -21 9 -34 7 -20 -2 -25
-10 -27 -42 -2 -21 2 -42 8 -46 6 -3 16 -34 22 -68 12 -66 3 -92 -32 -92 -22
0 -46 -28 -34 -39 5 -5 18 -11 29 -13 17 -3 20 -11 19 -58 -1 -30 -5 -80 -9
-111 -5 -41 -4 -58 5 -64 23 -14 37 21 48 123 7 57 15 108 18 113 10 16 73 38
157 55 140 28 142 68 4 45 -40 -7 -88 -17 -108 -22 -20 -5 -39 -9 -43 -9 -12
0 -6 137 7 147 10 8 146 46 240 67 30 7 36 30 11 40 -20 8 -20 8 -74 -9z"/>
</g>
</svg>
