<?xml version="1.0" standalone="no"?>
<!DOCTYPE svg PUBLIC "-//W3C//DTD SVG 20010904//EN"
 "http://www.w3.org/TR/2001/REC-SVG-20010904/DTD/svg10.dtd">
<svg version="1.0" xmlns="http://www.w3.org/2000/svg"
 width="100.000000pt" height="100.000000pt" viewBox="0 0 100.000000 100.000000"
 preserveAspectRatio="xMidYMid meet">
<metadata>
Created by potrace 1.16, written by Peter Selinger 2001-2019
</metadata>
<g transform="translate(0.000000,100.000000) scale(0.100000,-0.100000)"
fill="#000000" stroke="none">
<path d="M292 728 c-10 -13 2 -420 14 -476 11 -51 29 -12 44 94 15 102 31 154
48 154 16 0 81 -77 97 -115 9 -22 20 -62 23 -90 5 -35 12 -51 24 -53 27 -5 30
31 8 109 -44 159 -152 253 -199 172 -8 -13 -10 7 -11 84 0 79 -4 105 -16 117
-19 19 -19 19 -32 4z"/>
</g>
</svg>
