<?xml version="1.0" standalone="no"?>
<!DOCTYPE svg PUBLIC "-//W3C//DTD SVG 20010904//EN"
 "http://www.w3.org/TR/2001/REC-SVG-20010904/DTD/svg10.dtd">
<svg version="1.0" xmlns="http://www.w3.org/2000/svg"
 width="100.000000pt" height="100.000000pt" viewBox="0 0 100.000000 100.000000"
 preserveAspectRatio="xMidYMid meet">
<metadata>
Created by potrace 1.16, written by Peter Selinger 2001-2019
</metadata>
<g transform="translate(0.000000,100.000000) scale(0.100000,-0.100000)"
fill="#000000" stroke="none">
<path d="M309 783 c-10 -11 -10 -24 1 -61 28 -98 26 -128 -31 -354 -18 -74
-19 -91 -8 -104 18 -22 91 -12 255 37 56 17 215 11 260 -10 48 -22 76 -14 58
16 -21 34 -107 47 -229 35 -116 -12 -210 -25 -261 -36 -24 -5 -33 -3 -38 9 -3
8 10 75 29 149 37 141 42 194 24 275 -11 53 -37 72 -60 44z"/>
</g>
</svg>
