<?xml version="1.0" standalone="no"?>
<!DOCTYPE svg PUBLIC "-//W3C//DTD SVG 20010904//EN"
 "http://www.w3.org/TR/2001/REC-SVG-20010904/DTD/svg10.dtd">
<svg version="1.0" xmlns="http://www.w3.org/2000/svg"
 width="100.000000pt" height="100.000000pt" viewBox="0 0 100.000000 100.000000"
 preserveAspectRatio="xMidYMid meet">
<metadata>
Created by potrace 1.16, written by Peter Selinger 2001-2019
</metadata>
<g transform="translate(0.000000,100.000000) scale(0.100000,-0.100000)"
fill="#000000" stroke="none">
<path d="M247 741 c-31 -37 78 -52 238 -31 80 10 99 2 85 -35 -11 -30 -30
-198 -30 -270 0 -69 -18 -145 -36 -152 -35 -13 -130 92 -190 210 -35 69 -44
76 -62 54 -9 -10 1 -33 37 -95 106 -180 167 -243 224 -228 44 11 57 52 68 219
10 156 19 211 50 284 14 32 15 44 6 50 -7 4 -95 8 -195 8 -143 0 -186 -3 -195
-14z"/>
</g>
</svg>
