<?xml version="1.0" standalone="no"?>
<!DOCTYPE svg PUBLIC "-//W3C//DTD SVG 20010904//EN"
 "http://www.w3.org/TR/2001/REC-SVG-20010904/DTD/svg10.dtd">
<svg version="1.0" xmlns="http://www.w3.org/2000/svg"
 width="100.000000pt" height="100.000000pt" viewBox="0 0 100.000000 100.000000"
 preserveAspectRatio="xMidYMid meet">
<metadata>
Created by potrace 1.16, written by Peter Selinger 2001-2019
</metadata>
<g transform="translate(0.000000,100.000000) scale(0.100000,-0.100000)"
fill="#000000" stroke="none">
<path d="M270 745 c-20 -25 2 -281 32 -370 43 -127 97 -177 170 -156 46 14
109 77 140 140 21 42 22 59 21 181 -3 157 -10 194 -41 198 -27 4 -40 -23 -24
-49 17 -26 26 -145 18 -223 -13 -116 -105 -218 -171 -188 -57 26 -95 165 -95
353 0 68 -4 109 -12 117 -16 16 -23 15 -38 -3z"/>
</g>
</svg>
