<?xml version="1.0" standalone="no"?>
<!DOCTYPE svg PUBLIC "-//W3C//DTD SVG 20010904//EN"
 "http://www.w3.org/TR/2001/REC-SVG-20010904/DTD/svg10.dtd">
<svg version="1.0" xmlns="http://www.w3.org/2000/svg"
 width="100.000000pt" height="100.000000pt" viewBox="0 0 100.000000 100.000000"
 preserveAspectRatio="xMidYMid meet">
<metadata>
Created by potrace 1.16, written by Peter Selinger 2001-2019
</metadata>
<g transform="translate(0.000000,100.000000) scale(0.100000,-0.100000)"
fill="#000000" stroke="none">
<path d="M442 668 c-5 -7 -20 -47 -32 -88 -12 -41 -26 -88 -31 -104 -15 -47
-10 -109 10 -142 24 -40 72 -58 98 -38 17 13 15 16 -24 50 -37 30 -43 41 -43
73 0 34 26 111 67 198 8 18 13 40 9 48 -7 18 -40 20 -54 3z"/>
</g>
</svg>
