<?xml version="1.0" standalone="no"?>
<!DOCTYPE svg PUBLIC "-//W3C//DTD SVG 20010904//EN"
 "http://www.w3.org/TR/2001/REC-SVG-20010904/DTD/svg10.dtd">
<svg version="1.0" xmlns="http://www.w3.org/2000/svg"
 width="100.000000pt" height="100.000000pt" viewBox="0 0 100.000000 100.000000"
 preserveAspectRatio="xMidYMid meet">
<metadata>
Created by potrace 1.16, written by Peter Selinger 2001-2019
</metadata>
<g transform="translate(0.000000,100.000000) scale(0.100000,-0.100000)"
fill="#000000" stroke="none">
<path d="M470 691 c-8 -15 -7 -61 2 -171 6 -82 9 -153 5 -157 -4 -4 -14 2 -22
14 -18 26 -75 53 -110 53 -17 0 -39 -12 -61 -34 -44 -44 -48 -103 -8 -143 24
-23 30 -25 92 -19 103 9 152 17 157 27 3 5 1 61 -4 126 -7 74 -7 146 -1 193 5
41 10 86 12 100 2 21 -2 26 -24 28 -19 2 -30 -3 -38 -17z m-47 -354 c15 -17
26 -36 24 -42 -5 -15 -106 -18 -123 -4 -19 16 -18 54 2 74 23 23 63 12 97 -28z"/>
</g>
</svg>
