<?xml version="1.0" standalone="no"?>
<!DOCTYPE svg PUBLIC "-//W3C//DTD SVG 20010904//EN"
 "http://www.w3.org/TR/2001/REC-SVG-20010904/DTD/svg10.dtd">
<svg version="1.0" xmlns="http://www.w3.org/2000/svg"
 width="100.000000pt" height="100.000000pt" viewBox="0 0 100.000000 100.000000"
 preserveAspectRatio="xMidYMid meet">
<metadata>
Created by potrace 1.16, written by Peter Selinger 2001-2019
</metadata>
<g transform="translate(0.000000,100.000000) scale(0.100000,-0.100000)"
fill="#000000" stroke="none">
<path d="M497 774 c-4 -4 -7 -16 -7 -26 0 -15 6 -19 28 -16 19 2 27 9 27 23 0
20 -33 33 -48 19z"/>
<path d="M507 623 c-4 -3 -7 -56 -8 -117 -1 -175 -29 -219 -105 -161 -38 29
-64 27 -64 -4 0 -23 46 -58 93 -72 53 -15 83 4 102 65 18 62 41 256 32 279 -6
17 -38 23 -50 10z"/>
</g>
</svg>
