<?xml version="1.0" standalone="no"?>
<!DOCTYPE svg PUBLIC "-//W3C//DTD SVG 20010904//EN"
 "http://www.w3.org/TR/2001/REC-SVG-20010904/DTD/svg10.dtd">
<svg version="1.0" xmlns="http://www.w3.org/2000/svg"
 width="100.000000pt" height="100.000000pt" viewBox="0 0 100.000000 100.000000"
 preserveAspectRatio="xMidYMid meet">
<metadata>
Created by potrace 1.16, written by Peter Selinger 2001-2019
</metadata>
<g transform="translate(0.000000,100.000000) scale(0.100000,-0.100000)"
fill="#000000" stroke="none">
<path d="M330 745 c-7 -9 -9 -26 -5 -47 7 -29 81 -178 127 -253 27 -44 23 -71
-27 -169 -49 -96 -53 -111 -30 -120 10 -3 20 7 31 32 8 20 21 46 27 57 6 11
19 37 29 58 10 20 22 37 27 37 8 0 52 -47 113 -118 29 -36 43 -40 52 -16 4 10
-12 35 -47 72 -30 31 -63 74 -76 94 l-22 37 20 43 c10 24 26 63 36 88 20 53
43 108 56 132 18 35 4 78 -26 78 -15 0 -35 -44 -35 -75 0 -13 -4 -34 -9 -47
-5 -13 -14 -41 -21 -63 -17 -57 -40 -105 -49 -105 -24 0 -105 170 -125 261 -7
32 -30 43 -46 24z"/>
</g>
</svg>
