<?xml version="1.0" standalone="no"?>
<!DOCTYPE svg PUBLIC "-//W3C//DTD SVG 20010904//EN"
 "http://www.w3.org/TR/2001/REC-SVG-20010904/DTD/svg10.dtd">
<svg version="1.0" xmlns="http://www.w3.org/2000/svg"
 width="100.000000pt" height="100.000000pt" viewBox="0 0 100.000000 100.000000"
 preserveAspectRatio="xMidYMid meet">
<metadata>
Created by potrace 1.16, written by Peter Selinger 2001-2019
</metadata>
<g transform="translate(0.000000,100.000000) scale(0.100000,-0.100000)"
fill="#000000" stroke="none">
<path d="M365 828 c-20 -17 -45 -49 -56 -70 -27 -52 -44 -193 -44 -353 1 -118
3 -135 27 -186 14 -30 37 -67 51 -81 73 -73 197 -57 291 37 l26 26 45 -45 c47
-49 62 -55 72 -30 4 10 -11 32 -42 64 -43 44 -47 52 -38 72 33 69 40 139 22
215 -34 149 -77 244 -146 320 -66 73 -147 85 -208 31z m155 -39 c54 -33 95
-95 134 -202 32 -89 39 -255 13 -291 -13 -18 -16 -16 -41 20 -15 22 -36 54
-47 72 -16 28 -22 31 -39 22 -31 -17 -24 -40 30 -107 28 -34 50 -68 50 -75 0
-7 -23 -28 -50 -47 -41 -28 -60 -34 -104 -35 -83 -1 -117 27 -154 124 -18 48
-19 222 -2 290 15 57 46 116 74 139 21 18 20 37 -1 51 -16 9 -15 12 12 35 37
31 79 32 125 4z"/>
</g>
</svg>
