<?xml version="1.0" standalone="no"?>
<!DOCTYPE svg PUBLIC "-//W3C//DTD SVG 20010904//EN"
 "http://www.w3.org/TR/2001/REC-SVG-20010904/DTD/svg10.dtd">
<svg version="1.0" xmlns="http://www.w3.org/2000/svg"
 width="100.000000pt" height="100.000000pt" viewBox="0 0 100.000000 100.000000"
 preserveAspectRatio="xMidYMid meet">
<metadata>
Created by potrace 1.16, written by Peter Selinger 2001-2019
</metadata>
<g transform="translate(0.000000,100.000000) scale(0.100000,-0.100000)"
fill="#000000" stroke="none">
<path d="M342 653 l-22 -18 21 -32 c25 -39 43 -42 65 -8 15 24 12 65 -6 65 -5
0 -15 2 -23 5 -7 3 -23 -2 -35 -12z"/>
<path d="M498 623 c-17 -40 -104 -168 -133 -197 -27 -27 -32 -55 -13 -74 13
-13 43 16 95 93 15 22 49 66 75 98 26 32 48 62 48 67 0 47 -54 56 -72 13z"/>
<path d="M520 465 c-15 -19 -3 -55 19 -55 24 0 41 20 41 47 0 18 -6 23 -24 23
-13 0 -29 -7 -36 -15z"/>
</g>
</svg>
