<?xml version="1.0" standalone="no"?>
<!DOCTYPE svg PUBLIC "-//W3C//DTD SVG 20010904//EN"
 "http://www.w3.org/TR/2001/REC-SVG-20010904/DTD/svg10.dtd">
<svg version="1.0" xmlns="http://www.w3.org/2000/svg"
 width="100.000000pt" height="100.000000pt" viewBox="0 0 100.000000 100.000000"
 preserveAspectRatio="xMidYMid meet">
<metadata>
Created by potrace 1.16, written by Peter Selinger 2001-2019
</metadata>
<g transform="translate(0.000000,100.000000) scale(0.100000,-0.100000)"
fill="#000000" stroke="none">
<path d="M415 828 c-62 -22 -63 -27 -69 -191 -4 -140 -11 -214 -35 -372 -6
-45 -5 -63 4 -74 21 -22 33 13 40 115 3 49 11 107 17 129 10 38 13 40 52 42
63 2 156 41 193 81 30 31 33 41 33 94 0 56 -2 61 -42 101 -67 66 -139 94 -193
75z m99 -59 c66 -31 89 -60 89 -114 0 -30 -6 -52 -19 -66 -26 -29 -112 -69
-150 -69 -16 0 -36 -6 -43 -12 -11 -11 -12 -7 -6 22 3 19 9 78 12 130 4 82 8
97 26 112 28 23 38 22 91 -3z"/>
</g>
</svg>
