<?xml version="1.0" standalone="no"?>
<!DOCTYPE svg PUBLIC "-//W3C//DTD SVG 20010904//EN"
 "http://www.w3.org/TR/2001/REC-SVG-20010904/DTD/svg10.dtd">
<svg version="1.0" xmlns="http://www.w3.org/2000/svg"
 width="100.000000pt" height="100.000000pt" viewBox="0 0 100.000000 100.000000"
 preserveAspectRatio="xMidYMid meet">
<metadata>
Created by potrace 1.16, written by Peter Selinger 2001-2019
</metadata>
<g transform="translate(0.000000,100.000000) scale(0.100000,-0.100000)"
fill="#000000" stroke="none">
<path d="M425 771 c-35 -15 -57 -48 -58 -88 0 -21 0 -76 2 -123 1 -47 2 -90 2
-97 -1 -8 -20 -10 -69 -6 -56 5 -70 3 -82 -12 -21 -25 2 -35 87 -35 l72 0 -5
-67 c-8 -98 -24 -150 -63 -195 -35 -41 -32 -66 6 -54 39 12 68 82 84 201 16
122 11 116 76 113 48 -3 58 0 61 15 3 15 -5 17 -57 17 l-60 0 -7 34 c-3 19 -4
78 -2 131 2 82 6 99 22 111 42 30 111 12 140 -37 23 -39 56 -39 56 -1 0 32
-39 75 -83 91 -33 13 -93 13 -122 2z"/>
</g>
</svg>
