<?xml version="1.0" standalone="no"?>
<!DOCTYPE svg PUBLIC "-//W3C//DTD SVG 20010904//EN"
 "http://www.w3.org/TR/2001/REC-SVG-20010904/DTD/svg10.dtd">
<svg version="1.0" xmlns="http://www.w3.org/2000/svg"
 width="100.000000pt" height="100.000000pt" viewBox="0 0 100.000000 100.000000"
 preserveAspectRatio="xMidYMid meet">
<metadata>
Created by potrace 1.16, written by Peter Selinger 2001-2019
</metadata>
<g transform="translate(0.000000,100.000000) scale(0.100000,-0.100000)"
fill="#000000" stroke="none">
<path d="M477 634 c-4 -4 -7 -27 -7 -52 0 -40 -2 -44 -21 -39 -29 8 -49 -2
-49 -22 0 -26 21 -41 57 -41 31 0 40 -11 34 -44 -5 -24 12 -47 32 -44 19 3 22
9 22 52 0 45 2 51 30 62 17 7 42 13 58 14 20 0 27 5 27 19 0 24 -32 36 -59 22
-11 -6 -31 -11 -44 -11 -20 0 -26 7 -33 42 -8 40 -30 59 -47 42z"/>
</g>
</svg>
