<?xml version="1.0" standalone="no"?>
<!DOCTYPE svg PUBLIC "-//W3C//DTD SVG 20010904//EN"
 "http://www.w3.org/TR/2001/REC-SVG-20010904/DTD/svg10.dtd">
<svg version="1.0" xmlns="http://www.w3.org/2000/svg"
 width="100.000000pt" height="100.000000pt" viewBox="0 0 100.000000 100.000000"
 preserveAspectRatio="xMidYMid meet">
<metadata>
Created by potrace 1.16, written by Peter Selinger 2001-2019
</metadata>
<g transform="translate(0.000000,100.000000) scale(0.100000,-0.100000)"
fill="#000000" stroke="none">
<path d="M348 693 c-49 -20 -59 -50 -27 -77 23 -20 24 -27 23 -116 -2 -133
-14 -284 -24 -301 -7 -11 -14 -11 -27 -3 -24 14 -43 7 -43 -16 0 -33 79 -57
95 -29 15 23 35 148 35 215 l0 72 43 -5 c111 -13 182 101 129 207 -31 64 -121
87 -204 53z m143 -62 c41 -41 40 -90 -2 -125 -32 -28 -40 -29 -78 -19 -23 6
-23 8 -17 82 4 41 13 79 19 83 23 15 49 8 78 -21z"/>
</g>
</svg>
