<?xml version="1.0" standalone="no"?>
<!DOCTYPE svg PUBLIC "-//W3C//DTD SVG 20010904//EN"
 "http://www.w3.org/TR/2001/REC-SVG-20010904/DTD/svg10.dtd">
<svg version="1.0" xmlns="http://www.w3.org/2000/svg"
 width="100.000000pt" height="100.000000pt" viewBox="0 0 100.000000 100.000000"
 preserveAspectRatio="xMidYMid meet">
<metadata>
Created by potrace 1.16, written by Peter Selinger 2001-2019
</metadata>
<g transform="translate(0.000000,100.000000) scale(0.100000,-0.100000)"
fill="#000000" stroke="none">
<path d="M389 641 c-17 -14 -29 -17 -46 -10 -14 5 -25 4 -29 -2 -4 -6 -6 -57
-5 -113 1 -80 5 -104 18 -113 25 -19 33 -6 33 52 0 30 5 57 10 60 6 3 10 16
10 29 0 28 29 56 59 56 27 0 60 -66 61 -121 0 -42 25 -72 41 -48 12 19 11 30
-7 109 -19 87 -44 120 -89 120 -18 0 -43 -9 -56 -19z"/>
</g>
</svg>
