<?xml version="1.0" standalone="no"?>
<!DOCTYPE svg PUBLIC "-//W3C//DTD SVG 20010904//EN"
 "http://www.w3.org/TR/2001/REC-SVG-20010904/DTD/svg10.dtd">
<svg version="1.0" xmlns="http://www.w3.org/2000/svg"
 width="100.000000pt" height="100.000000pt" viewBox="0 0 100.000000 100.000000"
 preserveAspectRatio="xMidYMid meet">
<metadata>
Created by potrace 1.16, written by Peter Selinger 2001-2019
</metadata>
<g transform="translate(0.000000,100.000000) scale(0.100000,-0.100000)"
fill="#000000" stroke="none">
<path d="M533 578 c-6 -24 -17 -65 -24 -93 -12 -49 -29 -82 -29 -56 0 6 -19
40 -41 74 -73 108 -98 127 -118 88 -9 -16 -4 -26 27 -57 55 -57 78 -93 97
-151 18 -54 44 -75 68 -54 7 5 19 45 26 88 7 43 20 100 28 126 8 26 12 54 9
62 -11 28 -32 15 -43 -27z"/>
</g>
</svg>
