<?xml version="1.0" standalone="no"?>
<!DOCTYPE svg PUBLIC "-//W3C//DTD SVG 20010904//EN"
 "http://www.w3.org/TR/2001/REC-SVG-20010904/DTD/svg10.dtd">
<svg version="1.0" xmlns="http://www.w3.org/2000/svg"
 width="100.000000pt" height="100.000000pt" viewBox="0 0 100.000000 100.000000"
 preserveAspectRatio="xMidYMid meet">
<metadata>
Created by potrace 1.16, written by Peter Selinger 2001-2019
</metadata>
<g transform="translate(0.000000,100.000000) scale(0.100000,-0.100000)"
fill="#000000" stroke="none">
<path d="M386 638 c-82 -131 -107 -257 -58 -295 39 -29 88 -5 127 62 33 56 35
138 3 172 -23 24 -22 29 19 94 19 30 12 59 -14 59 -12 0 -39 -33 -77 -92z m40
-125 c5 -18 0 -40 -16 -70 -38 -73 -67 -45 -39 38 22 63 44 76 55 32z"/>
</g>
</svg>
