<?xml version="1.0" standalone="no"?>
<!DOCTYPE svg PUBLIC "-//W3C//DTD SVG 20010904//EN"
 "http://www.w3.org/TR/2001/REC-SVG-20010904/DTD/svg10.dtd">
<svg version="1.0" xmlns="http://www.w3.org/2000/svg"
 width="100.000000pt" height="100.000000pt" viewBox="0 0 100.000000 100.000000"
 preserveAspectRatio="xMidYMid meet">
<metadata>
Created by potrace 1.16, written by Peter Selinger 2001-2019
</metadata>
<g transform="translate(0.000000,100.000000) scale(0.100000,-0.100000)"
fill="#000000" stroke="none">
<path d="M329 763 c0 -4 -1 -104 -2 -221 -2 -159 1 -216 10 -224 14 -11 131
-5 201 10 54 12 79 33 60 50 -10 8 -30 7 -73 -4 -77 -18 -125 -18 -125 -1 0 8
20 40 45 72 50 63 55 98 18 103 -16 2 -30 -8 -52 -39 -17 -23 -31 -36 -32 -28
0 8 -1 75 -2 149 -2 132 -3 135 -24 138 -13 2 -23 0 -24 -5z"/>
</g>
</svg>
