<?xml version="1.0" standalone="no"?>
<!DOCTYPE svg PUBLIC "-//W3C//DTD SVG 20010904//EN"
 "http://www.w3.org/TR/2001/REC-SVG-20010904/DTD/svg10.dtd">
<svg version="1.0" xmlns="http://www.w3.org/2000/svg"
 width="100.000000pt" height="100.000000pt" viewBox="0 0 100.000000 100.000000"
 preserveAspectRatio="xMidYMid meet">
<metadata>
Created by potrace 1.16, written by Peter Selinger 2001-2019
</metadata>
<g transform="translate(0.000000,100.000000) scale(0.100000,-0.100000)"
fill="#000000" stroke="none">
<path d="M455 792 c-42 -26 -97 -91 -93 -110 2 -10 14 -18 28 -19 19 -2 32 8
55 40 27 37 75 63 75 40 0 -5 -13 -63 -30 -129 -16 -67 -31 -143 -32 -170 -3
-46 -2 -49 22 -49 23 0 25 4 31 60 4 33 21 109 38 169 17 60 31 119 31 131 0
51 -69 71 -125 37z"/>
<path d="M457 293 c-13 -12 -7 -54 9 -60 36 -14 94 39 63 58 -17 10 -63 12
-72 2z"/>
</g>
</svg>
