<?xml version="1.0" standalone="no"?>
<!DOCTYPE svg PUBLIC "-//W3C//DTD SVG 20010904//EN"
 "http://www.w3.org/TR/2001/REC-SVG-20010904/DTD/svg10.dtd">
<svg version="1.0" xmlns="http://www.w3.org/2000/svg"
 width="100.000000pt" height="100.000000pt" viewBox="0 0 100.000000 100.000000"
 preserveAspectRatio="xMidYMid meet">
<metadata>
Created by potrace 1.16, written by Peter Selinger 2001-2019
</metadata>
<g transform="translate(0.000000,100.000000) scale(0.100000,-0.100000)"
fill="#000000" stroke="none">
<path d="M237 748 c-9 -6 -9 -12 -1 -25 10 -16 27 -18 172 -15 89 2 166 1 171
-3 22 -13 -90 -185 -233 -356 -56 -67 -95 -123 -96 -136 0 -32 37 -38 112 -19
35 9 108 21 163 27 121 12 126 14 118 34 -5 14 -17 15 -82 9 -42 -3 -113 -12
-158 -19 -59 -8 -83 -9 -83 -1 0 11 32 53 160 210 50 60 150 205 150 215 0 6
4 11 9 11 12 0 25 59 16 68 -9 9 -404 9 -418 0z"/>
</g>
</svg>
