<?xml version="1.0" standalone="no"?>
<!DOCTYPE svg PUBLIC "-//W3C//DTD SVG 20010904//EN"
 "http://www.w3.org/TR/2001/REC-SVG-20010904/DTD/svg10.dtd">
<svg version="1.0" xmlns="http://www.w3.org/2000/svg"
 width="100.000000pt" height="100.000000pt" viewBox="0 0 100.000000 100.000000"
 preserveAspectRatio="xMidYMid meet">
<metadata>
Created by potrace 1.16, written by Peter Selinger 2001-2019
</metadata>
<g transform="translate(0.000000,100.000000) scale(0.100000,-0.100000)"
fill="#000000" stroke="none">
<path d="M678 755 c-2 -3 -111 -5 -241 -6 -131 -1 -240 -5 -243 -10 -3 -5 -2
-18 1 -29 6 -18 15 -20 100 -20 90 0 95 -1 99 -22 6 -28 11 -84 26 -313 6 -99
16 -184 20 -189 5 -5 16 -6 25 -2 14 5 16 16 12 59 -14 145 -29 428 -24 450 9
32 29 37 158 37 85 0 109 3 120 16 10 13 10 17 -2 25 -15 10 -43 12 -51 4z"/>
</g>
</svg>
