<?xml version="1.0" standalone="no"?>
<!DOCTYPE svg PUBLIC "-//W3C//DTD SVG 20010904//EN"
 "http://www.w3.org/TR/2001/REC-SVG-20010904/DTD/svg10.dtd">
<svg version="1.0" xmlns="http://www.w3.org/2000/svg"
 width="100.000000pt" height="100.000000pt" viewBox="0 0 100.000000 100.000000"
 preserveAspectRatio="xMidYMid meet">
<metadata>
Created by potrace 1.16, written by Peter Selinger 2001-2019
</metadata>
<g transform="translate(0.000000,100.000000) scale(0.100000,-0.100000)"
fill="#000000" stroke="none">
<path d="M535 779 c-112 -24 -179 -54 -232 -103 -77 -70 -115 -141 -149 -276
-18 -75 -17 -121 5 -179 24 -63 71 -115 121 -131 61 -20 151 11 265 91 137 97
174 173 122 250 -27 41 -67 57 -99 42 -36 -17 -103 -33 -137 -33 -28 0 -32 -3
-29 -22 3 -25 1 -25 121 -12 194 20 141 -118 -94 -244 -99 -53 -159 -38 -216
51 -65 104 -4 326 120 432 50 43 144 75 231 78 75 3 97 19 69 49 -17 19 -36
21 -98 7z"/>
</g>
</svg>
