<?xml version="1.0" standalone="no"?>
<!DOCTYPE svg PUBLIC "-//W3C//DTD SVG 20010904//EN"
 "http://www.w3.org/TR/2001/REC-SVG-20010904/DTD/svg10.dtd">
<svg version="1.0" xmlns="http://www.w3.org/2000/svg"
 width="100.000000pt" height="100.000000pt" viewBox="0 0 100.000000 100.000000"
 preserveAspectRatio="xMidYMid meet">
<metadata>
Created by potrace 1.16, written by Peter Selinger 2001-2019
</metadata>
<g transform="translate(0.000000,100.000000) scale(0.100000,-0.100000)"
fill="#000000" stroke="none">
<path d="M392 708 c-5 -7 -13 -23 -16 -35 -4 -12 -17 -23 -29 -25 -34 -5 -35
-45 -2 -54 21 -5 25 -11 21 -28 -4 -11 -9 -33 -13 -49 -5 -26 -14 -31 -68 -39
-30 -5 -31 -36 -1 -48 27 -10 32 -28 17 -58 -84 -162 -88 -177 -38 -169 17 3
52 12 76 22 28 10 89 18 165 21 144 7 186 17 186 46 0 17 -4 19 -32 14 -58
-11 -340 -37 -346 -32 -4 5 45 133 58 149 8 9 162 47 190 47 10 0 22 5 26 11
14 24 -14 29 -95 18 -45 -6 -85 -9 -88 -5 -11 11 21 98 41 111 20 12 53 20
140 30 48 6 57 12 50 30 -5 12 -22 13 -95 8 l-88 -6 -10 27 c-11 28 -32 34
-49 14z"/>
</g>
</svg>
