<?xml version="1.0" standalone="no"?>
<!DOCTYPE svg PUBLIC "-//W3C//DTD SVG 20010904//EN"
 "http://www.w3.org/TR/2001/REC-SVG-20010904/DTD/svg10.dtd">
<svg version="1.0" xmlns="http://www.w3.org/2000/svg"
 width="100.000000pt" height="100.000000pt" viewBox="0 0 100.000000 100.000000"
 preserveAspectRatio="xMidYMid meet">
<metadata>
Created by potrace 1.16, written by Peter Selinger 2001-2019
</metadata>
<g transform="translate(0.000000,100.000000) scale(0.100000,-0.100000)"
fill="#000000" stroke="none">
<path d="M379 706 c-28 -29 -48 -109 -49 -193 0 -50 6 -73 33 -124 57 -110
111 -117 175 -22 35 53 37 61 37 132 0 63 -5 86 -29 134 -44 92 -118 124 -167
73z m82 -46 c33 -18 62 -89 63 -155 1 -51 -3 -66 -29 -102 -16 -24 -36 -43
-43 -43 -7 0 -25 25 -39 56 -22 49 -25 65 -19 118 15 143 19 151 67 126z"/>
</g>
</svg>
