<?xml version="1.0" standalone="no"?>
<!DOCTYPE svg PUBLIC "-//W3C//DTD SVG 20010904//EN"
 "http://www.w3.org/TR/2001/REC-SVG-20010904/DTD/svg10.dtd">
<svg version="1.0" xmlns="http://www.w3.org/2000/svg"
 width="100.000000pt" height="100.000000pt" viewBox="0 0 100.000000 100.000000"
 preserveAspectRatio="xMidYMid meet">
<metadata>
Created by potrace 1.16, written by Peter Selinger 2001-2019
</metadata>
<g transform="translate(0.000000,100.000000) scale(0.100000,-0.100000)"
fill="#000000" stroke="none">
<path d="M507 833 c-3 -4 -17 -44 -32 -88 -49 -149 -79 -197 -133 -222 -20 -9
-41 -19 -45 -21 -8 -4 -4 229 5 287 4 27 -21 47 -46 38 -14 -6 -16 -41 -16
-346 0 -339 3 -368 34 -342 9 8 12 37 8 115 -5 104 -4 105 20 116 13 6 37 31
53 55 17 25 35 45 42 45 27 0 107 -80 159 -157 35 -53 64 -69 64 -35 0 22
-114 175 -164 220 l-37 33 19 27 c34 49 113 219 115 248 2 23 -3 30 -20 32
-11 2 -23 0 -26 -5z"/>
</g>
</svg>
