<?xml version="1.0" standalone="no"?>
<!DOCTYPE svg PUBLIC "-//W3C//DTD SVG 20010904//EN"
 "http://www.w3.org/TR/2001/REC-SVG-20010904/DTD/svg10.dtd">
<svg version="1.0" xmlns="http://www.w3.org/2000/svg"
 width="100.000000pt" height="100.000000pt" viewBox="0 0 100.000000 100.000000"
 preserveAspectRatio="xMidYMid meet">
<metadata>
Created by potrace 1.16, written by Peter Selinger 2001-2019
</metadata>
<g transform="translate(0.000000,100.000000) scale(0.100000,-0.100000)"
fill="#000000" stroke="none">
<path d="M472 716 c-52 -17 -82 -42 -82 -68 0 -28 28 -33 53 -11 32 29 80 45
110 37 15 -3 27 -10 27 -15 0 -12 -86 -69 -104 -69 -21 0 -46 -28 -40 -45 3
-7 36 -23 73 -34 78 -24 112 -54 113 -101 1 -43 -32 -73 -107 -96 -39 -13 -55
-23 -55 -35 0 -29 13 -30 83 -7 44 14 76 32 99 55 29 30 33 41 32 83 -1 56
-14 75 -81 118 -23 15 -42 30 -40 33 1 4 22 22 47 41 51 38 62 74 32 101 -26
24 -107 30 -160 13z"/>
</g>
</svg>
