<?xml version="1.0" standalone="no"?>
<!DOCTYPE svg PUBLIC "-//W3C//DTD SVG 20010904//EN"
 "http://www.w3.org/TR/2001/REC-SVG-20010904/DTD/svg10.dtd">
<svg version="1.0" xmlns="http://www.w3.org/2000/svg"
 width="100.000000pt" height="100.000000pt" viewBox="0 0 100.000000 100.000000"
 preserveAspectRatio="xMidYMid meet">
<metadata>
Created by potrace 1.16, written by Peter Selinger 2001-2019
</metadata>
<g transform="translate(0.000000,100.000000) scale(0.100000,-0.100000)"
fill="#000000" stroke="none">
<path d="M320 783 c-87 -31 -112 -61 -80 -93 19 -19 20 -32 20 -269 0 -137 3
-256 6 -265 3 -9 14 -16 24 -16 16 0 17 11 12 135 -3 76 -1 135 4 135 11 0
138 -94 190 -140 35 -30 64 -36 71 -14 2 6 -27 36 -64 65 -90 71 -153 129
-153 142 0 6 11 22 24 36 13 15 37 52 55 84 40 74 44 154 9 187 -21 20 -81 26
-118 13z m88 -86 c5 -40 -33 -129 -69 -163 -16 -15 -32 -25 -35 -21 -3 3 -1
29 5 57 6 28 11 64 11 80 0 16 4 41 10 55 8 22 15 26 42 23 28 -3 34 -7 36
-31z"/>
</g>
</svg>
