<?xml version="1.0" standalone="no"?>
<!DOCTYPE svg PUBLIC "-//W3C//DTD SVG 20010904//EN"
 "http://www.w3.org/TR/2001/REC-SVG-20010904/DTD/svg10.dtd">
<svg version="1.0" xmlns="http://www.w3.org/2000/svg"
 width="100.000000pt" height="100.000000pt" viewBox="0 0 100.000000 100.000000"
 preserveAspectRatio="xMidYMid meet">
<metadata>
Created by potrace 1.16, written by Peter Selinger 2001-2019
</metadata>
<g transform="translate(0.000000,100.000000) scale(0.100000,-0.100000)"
fill="#000000" stroke="none">
<path d="M358 609 c-49 -28 -99 -182 -64 -195 24 -9 46 14 46 50 0 41 34 96
60 96 21 0 27 -17 32 -80 4 -44 28 -47 46 -5 27 62 38 80 52 80 18 0 48 -53
49 -87 1 -41 11 -58 33 -58 22 0 22 -3 2 122 -7 44 -44 88 -74 88 -11 0 -32
-7 -46 -16 -23 -15 -26 -15 -43 0 -20 18 -67 21 -93 5z"/>
</g>
</svg>
