<?xml version="1.0" standalone="no"?>
<!DOCTYPE svg PUBLIC "-//W3C//DTD SVG 20010904//EN"
 "http://www.w3.org/TR/2001/REC-SVG-20010904/DTD/svg10.dtd">
<svg version="1.0" xmlns="http://www.w3.org/2000/svg"
 width="100.000000pt" height="100.000000pt" viewBox="0 0 100.000000 100.000000"
 preserveAspectRatio="xMidYMid meet">
<metadata>
Created by potrace 1.16, written by Peter Selinger 2001-2019
</metadata>
<g transform="translate(0.000000,100.000000) scale(0.100000,-0.100000)"
fill="#000000" stroke="none">
<path d="M363 641 c-47 -22 -63 -45 -63 -91 0 -88 92 -138 174 -95 15 8 32 13
36 10 5 -3 12 -36 15 -73 8 -73 20 -99 40 -82 9 8 10 23 3 63 -6 28 -7 86 -3
127 8 93 10 139 4 144 -2 2 -40 6 -84 10 -67 5 -87 3 -122 -13z m111 -52 c38
-30 33 -55 -15 -80 -35 -18 -45 -19 -71 -8 -25 10 -29 16 -26 48 2 26 10 39
28 48 35 18 53 16 84 -8z"/>
</g>
</svg>
