<?xml version="1.0" standalone="no"?>
<!DOCTYPE svg PUBLIC "-//W3C//DTD SVG 20010904//EN"
 "http://www.w3.org/TR/2001/REC-SVG-20010904/DTD/svg10.dtd">
<svg version="1.0" xmlns="http://www.w3.org/2000/svg"
 width="100.000000pt" height="100.000000pt" viewBox="0 0 100.000000 100.000000"
 preserveAspectRatio="xMidYMid meet">
<metadata>
Created by potrace 1.16, written by Peter Selinger 2001-2019
</metadata>
<g transform="translate(0.000000,100.000000) scale(0.100000,-0.100000)"
fill="#000000" stroke="none">
<path d="M300 820 c-66 -17 -100 -38 -100 -62 0 -4 10 -17 22 -28 22 -20 22
-27 22 -200 -1 -121 -5 -184 -13 -194 -15 -18 -4 -91 16 -108 13 -10 19 -8 37
14 20 26 23 26 66 17 25 -6 83 -8 131 -5 175 12 289 78 289 169 0 75 -47 122
-153 152 l-58 17 37 32 c33 29 37 38 37 79 0 56 -7 66 -76 100 -72 37 -158 43
-257 17z m202 -43 c73 -25 94 -63 63 -111 -28 -43 -85 -72 -153 -79 -75 -8
-102 -21 -102 -48 0 -31 27 -34 111 -9 153 44 280 4 296 -93 5 -31 1 -39 -34
-73 -58 -59 -197 -92 -310 -74 -105 17 -96 -7 -88 239 4 119 11 221 16 226 31
32 138 44 201 22z"/>
</g>
</svg>
