<?xml version="1.0" standalone="no"?>
<!DOCTYPE svg PUBLIC "-//W3C//DTD SVG 20010904//EN"
 "http://www.w3.org/TR/2001/REC-SVG-20010904/DTD/svg10.dtd">
<svg version="1.0" xmlns="http://www.w3.org/2000/svg"
 width="100.000000pt" height="100.000000pt" viewBox="0 0 100.000000 100.000000"
 preserveAspectRatio="xMidYMid meet">
<metadata>
Created by potrace 1.16, written by Peter Selinger 2001-2019
</metadata>
<g transform="translate(0.000000,100.000000) scale(0.100000,-0.100000)"
fill="#000000" stroke="none">
<path d="M455 907 c-34 -21 -85 -79 -85 -98 0 -10 -4 -20 -9 -23 -13 -9 -37
-115 -49 -221 -6 -47 -10 -59 -23 -57 -47 7 -49 -69 -4 -161 46 -95 133 -155
204 -142 84 15 173 102 228 221 22 49 27 73 27 149 1 79 -3 102 -29 165 -29
73 -82 139 -132 168 -28 15 -101 15 -128 -1z m169 -88 c125 -139 110 -385 -30
-508 -25 -22 -61 -45 -80 -51 -87 -29 -176 33 -198 137 -6 25 -3 36 13 52 16
16 19 28 14 52 -3 17 0 63 7 102 33 189 86 266 182 267 43 0 49 -3 92 -51z"/>
</g>
</svg>
